<?xml version="1.0" encoding="UTF-8"?>
<svg width="800" height="600" viewBox="0 0 800 600" fill="none" xmlns="http://www.w3.org/2000/svg">
  <!-- Background Circle -->
  <circle cx="400" cy="300" r="250" fill="#E3F2FD" opacity="0.5"/>
  
  <!-- Network Lines -->
  <g stroke="#90CAF9" stroke-width="2">
    <line x1="200" y1="200" x2="600" y2="400"/>
    <line x1="300" y1="150" x2="500" y2="450"/>
    <line x1="400" y1="100" x2="400" y2="500"/>
    <line x1="500" y1="150" x2="300" y2="450"/>
    <line x1="600" y1="200" x2="200" y2="400"/>
  </g>
  
  <!-- Nodes -->
  <g>
    <!-- Center Node -->
    <circle cx="400" cy="300" r="40" fill="#1976D2"/>
    <text x="400" y="305" text-anchor="middle" fill="white" font-size="14">AI</text>
    
    <!-- Outer Nodes -->
    <circle cx="200" cy="200" r="30" fill="#2196F3"/>
    <circle cx="300" cy="150" r="30" fill="#2196F3"/>
    <circle cx="500" cy="150" r="30" fill="#2196F3"/>
    <circle cx="600" cy="200" r="30" fill="#2196F3"/>
    <circle cx="600" cy="400" r="30" fill="#2196F3"/>
    <circle cx="500" cy="450" r="30" fill="#2196F3"/>
    <circle cx="300" cy="450" r="30" fill="#2196F3"/>
    <circle cx="200" cy="400" r="30" fill="#2196F3"/>
  </g>
  
  <!-- Decorative Elements -->
  <g>
    <circle cx="400" cy="300" r="280" stroke="#90CAF9" stroke-width="1" stroke-dasharray="10 5"/>
    <circle cx="400" cy="300" r="320" stroke="#90CAF9" stroke-width="1" stroke-dasharray="15 10"/>
  </g>
</svg> 